<?xml version="1.0" encoding="UTF-8" standalone="no"?>
<svg
   viewBox="0 0 34 84"
   version="1.1"
   id="svg6"
   sodipodi:docname="breadcrumb.svg"
   width="34"
   height="84"
   inkscape:version="1.4.2 (ebf0e940d0, 2025-05-08)"
   xmlns:inkscape="http://www.inkscape.org/namespaces/inkscape"
   xmlns:sodipodi="http://sodipodi.sourceforge.net/DTD/sodipodi-0.dtd"
   xmlns:xlink="http://www.w3.org/1999/xlink"
   xmlns="http://www.w3.org/2000/svg"
   xmlns:svg="http://www.w3.org/2000/svg"
   xmlns:rdf="http://www.w3.org/1999/02/22-rdf-syntax-ns#"
   xmlns:cc="http://creativecommons.org/ns#"
   xmlns:dc="http://purl.org/dc/elements/1.1/">
  <metadata
     id="metadata10">
    <rdf:RDF>
      <cc:Work
         rdf:about="">
        <dc:format>image/svg+xml</dc:format>
        <dc:type
           rdf:resource="http://purl.org/dc/dcmitype/StillImage" />
        <dc:title />
      </cc:Work>
    </rdf:RDF>
  </metadata>
  <sodipodi:namedview
     pagecolor="#dcdcdc"
     bordercolor="#666666"
     borderopacity="1"
     objecttolerance="10"
     gridtolerance="10"
     guidetolerance="10"
     inkscape:pageopacity="0"
     inkscape:pageshadow="2"
     inkscape:window-width="2560"
     inkscape:window-height="1368"
     id="namedview8"
     showgrid="true"
     inkscape:zoom="8"
     inkscape:cx="-27.0625"
     inkscape:cy="44.6875"
     inkscape:window-x="0"
     inkscape:window-y="0"
     inkscape:window-maximized="1"
     inkscape:current-layer="svg6"
     inkscape:showpageshadow="2"
     inkscape:pagecheckerboard="0"
     inkscape:deskcolor="#d1d1d1">
    <inkscape:grid
       type="xygrid"
       id="grid4506"
       originx="0"
       originy="0"
       spacingy="1"
       spacingx="1"
       units="px" />
  </sodipodi:namedview>
  <defs
     id="defs3051">
    <linearGradient
       id="linearGradient11">
      <stop
         id="stop10"
         style="stop-color:#000000;stop-opacity:1;"
         offset="0" />
      <stop
         id="stop11"
         style="stop-color:#ff00e6;stop-opacity:1"
         offset="1" />
    </linearGradient>
    <style
       type="text/css"
       id="current-color-scheme">
      .ColorScheme-Text {
        color:#eff0f1;
      }
      
      .ColorScheme-Background {
        color:#0c0c0c;
      }</style>
    <linearGradient
       id="linearGradient925">
      <stop
         id="stop920"
         style="stop-color:#5800e2;stop-opacity:1"
         offset="0" />
      <stop
         id="stop922"
         style="stop-color:#ff00e6;stop-opacity:1"
         offset="1" />
    </linearGradient>
    <linearGradient
       xlink:href="#linearGradient991"
       gradientUnits="userSpaceOnUse"
       gradientTransform="translate(364.98305,-121.3886)"
       y2="39.015999"
       y1="39.015999"
       x2="82"
       x1="26"
       id="linearGradient1016" />
    <linearGradient
       id="linearGradient991">
      <stop
         offset="0"
         style="stop-color:#a22f66;stop-opacity:1"
         id="stop987" />
      <stop
         offset="1"
         style="stop-color:#1b77a0;stop-opacity:1"
         id="stop989" />
    </linearGradient>
    <linearGradient
       xlink:href="#linearGradient925"
       gradientUnits="userSpaceOnUse"
       y2="363.35999"
       y1="269.35999"
       x2="407"
       x1="407"
       id="linearGradient908" />
    <linearGradient
       xlink:href="#linearGradient925"
       gradientUnits="userSpaceOnUse"
       y2="363.362"
       y1="363.362"
       x2="126.998"
       x1="32.998001"
       id="linearGradient910" />
    <linearGradient
       xlink:href="#linearGradient925"
       gradientUnits="userSpaceOnUse"
       y2="363.35999"
       y1="269.35999"
       x2="218"
       x1="218"
       id="linearGradient914" />
    <linearGradient
       xlink:href="#linearGradient925"
       gradientUnits="userSpaceOnUse"
       y2="358.362"
       y1="358.362"
       x2="126.998"
       x1="32.998001"
       id="linearGradient916" />
    <linearGradient
       xlink:href="#linearGradient925"
       gradientUnits="userSpaceOnUse"
       y2="432.35999"
       y1="432.35999"
       x2="363"
       x1="269"
       id="linearGradient920" />
    <linearGradient
       xlink:href="#linearGradient925"
       gradientUnits="userSpaceOnUse"
       y2="358.35999"
       y1="358.35999"
       x2="127"
       x1="33"
       id="linearGradient922" />
    <linearGradient
       xlink:href="#linearGradient925"
       gradientUnits="userSpaceOnUse"
       y2="227.36"
       y1="227.36"
       x2="370"
       x1="276"
       id="linearGradient932" />
    <linearGradient
       xlink:href="#linearGradient925"
       gradientUnits="userSpaceOnUse"
       y2="362.35999"
       y1="362.35999"
       x2="127"
       x1="33"
       id="linearGradient934" />
    <linearGradient
       xlink:href="#linearGradient925"
       gradientUnits="userSpaceOnUse"
       y2="226.36"
       y1="226.36"
       x2="370"
       x1="276"
       id="linearGradient936" />
  </defs>
  <g
     id="g11"
     inkscape:label="right">
    <rect
       style="fill:none;fill-opacity:1;stroke:none;stroke-width:2.37555;stroke-linecap:square;stroke-linejoin:round;stroke-miterlimit:4;stroke-dasharray:none;stroke-dashoffset:0;stroke-opacity:1"
       id="rect919-3"
       width="9.0166397"
       height="30.980795"
       x="25.13731"
       y="48.131489" />
    <path
       sodipodi:nodetypes="ccccccccc"
       class="ColorScheme-Text"
       inkscape:connector-curvature="0"
       style="color:#eff0f1;display:inline;fill:#3e3750;fill-opacity:1;stroke:none;stroke-width:1.20605"
       d="m 25.14563,49.102077 v 29.000001 h 0.75 c 0.53799,-2.26e-4 1.025852,-0.457405 1.244141,-1.164772 l 3.888671,-12.039775 c 0.156254,-0.506081 0.156254,-1.084829 0,-1.590909 L 27.139771,50.26685 C 26.921482,49.559483 26.43362,49.102303 25.89563,49.102077 Z"
       id="path921-1" />
    <path
       sodipodi:nodetypes="ccccccccccccccccc"
       class="ColorScheme-Text"
       inkscape:connector-curvature="0"
       style="color:#eff0f1;display:inline;opacity:0.4;fill:#1a1a1a;fill-opacity:1;stroke:none;stroke-width:1.20605"
       d="m 25.14563,49.102077 v 1 h 0.589844 c 0.149643,6.3e-5 0.435882,0.576067 0.492187,0.758523 l 3.888672,13.042613 c 0.03976,0.128771 0.03976,0.268948 0,0.397728 l -3.888672,12.042615 c -0.05631,0.182455 -0.397834,0.758459 -0.547478,0.758522 H 25.14563 v 1 h 0.75 c 0.53799,-2.26e-4 1.025852,-0.457405 1.244141,-1.164772 l 3.888671,-12.039775 c 0.156254,-0.506081 0.156254,-1.084829 0,-1.590909 L 27.139771,50.26685 C 26.921482,49.559483 26.43362,49.102303 25.89563,49.102077 Z"
       id="path923-7" />
  </g>
  <g
     transform="matrix(1,0,0,1.4545454,-23.85437,88.82935)"
     id="focus-center-9"
     inkscape:label="center"
     style="fill:#ff2a2a">
    <rect
       style="display:inline;opacity:1;fill:#ff2a2a;fill-opacity:1;stroke:none;stroke-width:1.96632;stroke-linecap:square;stroke-linejoin:round;stroke-miterlimit:4;stroke-dasharray:none;stroke-dashoffset:0;stroke-opacity:1"
       id="rect927-6"
       width="17"
       height="21.265266"
       x="31"
       y="-27.95166" />
    <path
       class="ColorScheme-Text"
       inkscape:connector-curvature="0"
       style="color:#eff0f1;display:inline;opacity:1;fill:#ff2a2a;fill-opacity:1;stroke:none;stroke-width:0.998436"
       d="M 31,-27.312501 V -7.3749998 H 48 V -27.312501 Z"
       id="path929-2" />
    <path
       style="display:inline;opacity:0.4;fill:#ff2a2a;fill-opacity:1;stroke:none"
       d="M 31,-27.312501 V -26.625 h 17 v -0.687501 z"
       id="path1041-1"
       inkscape:connector-curvature="0" />
    <path
       style="display:inline;opacity:0.4;fill:#ff2a2a;fill-opacity:1;stroke:none"
       d="m 31,-8.0624998 v 0.6875 h 17 v -0.6875 z"
       id="path931-7"
       inkscape:connector-curvature="0" />
  </g>
  <g
     transform="matrix(1,0,0,1.4545454,-38.85437,48.102077)"
     id="focus-left-8"
     inkscape:label="left">
    <rect
       style="opacity:1;fill:none;fill-opacity:1;stroke:none;stroke-width:1.96829;stroke-linecap:square;stroke-linejoin:round;stroke-miterlimit:4;stroke-dasharray:none;stroke-dashoffset:0;stroke-opacity:1"
       id="rect935-5"
       width="6"
       height="21.307737"
       x="39"
       y="0.0037244302" />
    <path
       sodipodi:nodetypes="cccccccc"
       class="ColorScheme-Text"
       style="color:#eff0f1;display:inline;opacity:1;fill:#3e3750;fill-opacity:1;stroke:none"
       d="m 41.363281,0.6875003 c -0.984935,1.29e-4 -1.644132,1.002402 -1.24414,1.892578 L 43.761719,11 40.119141,18.732423 c -0.399992,0.890175 0.259205,1.89245 1.24414,1.892578 H 45 V 0.6875003 Z"
       id="path937-7"
       inkscape:connector-curvature="0" />
    <path
       sodipodi:nodetypes="cccccccccccccccc"
       class="ColorScheme-Text"
       style="color:#eff0f1;display:inline;opacity:0.4;fill:#1a1a1a;fill-opacity:1;stroke:none"
       d="m 41.363281,0.6875003 c -0.984935,1.29e-4 -1.644132,1.002403 -1.24414,1.892578 L 43.761719,11 40.119141,18.732423 c -0.399992,0.890175 0.259205,1.89245 1.24414,1.892578 H 45 v -0.6875 h -3.636719 c -0.306332,-4e-5 -0.448722,-0.535229 -0.332031,-0.794922 l 3.642578,-7.732423 c 0.1173,-0.260857 0.1173,-0.559455 0,-0.820312 L 41.03125,2.1699223 c -0.116691,-0.259694 0.0257,-0.794882 0.332031,-0.794922 H 45 v -0.6875 z"
       id="path939-4"
       inkscape:connector-curvature="0" />
  </g>
  <g
     transform="matrix(1,0,0,1.4545454,-23,14)"
     id="focus-right">
    <rect
       style="opacity:1;fill:none;fill-opacity:1;stroke:none;stroke-width:1.9697;stroke-linecap:square;stroke-linejoin:round;stroke-miterlimit:4;stroke-dasharray:none;stroke-dashoffset:0;stroke-opacity:1"
       id="rect919"
       width="9.0166397"
       height="21.299297"
       x="47.99168"
       y="0.020219479" />
    <path
       sodipodi:nodetypes="ccccccccc"
       class="ColorScheme-Text"
       inkscape:connector-curvature="0"
       style="color:#eff0f1;display:inline;opacity:1;fill:#7f6bad;fill-opacity:1;stroke:none"
       d="M 48,0.6875003 V 20.625001 h 0.75 c 0.53799,-1.55e-4 1.025852,-0.314466 1.244141,-0.800781 l 3.888671,-8.277345 c 0.156254,-0.347931 0.156254,-0.74582 0,-1.09375 L 49.994141,1.4882815 C 49.775852,1.0019668 49.28799,0.6876553 48.75,0.6875003 Z"
       id="path921" />
    <path
       sodipodi:nodetypes="ccccccccccccccccc"
       class="ColorScheme-Text"
       inkscape:connector-curvature="0"
       style="color:#eff0f1;display:inline;fill:#1a1a1a;fill-opacity:1;stroke:none;opacity:0.4"
       d="m 48,0.6875003 v 0.6875 h 0.589844 c 0.149643,4.31e-5 0.435882,0.396046 0.492187,0.5214844 l 3.888672,8.9667963 c 0.03976,0.08853 0.03976,0.184902 0,0.273438 l -3.888672,8.279298 c -0.05631,0.125438 -0.397834,0.521441 -0.547478,0.521484 H 48 v 0.6875 h 0.75 c 0.53799,-1.55e-4 1.025852,-0.314466 1.244141,-0.800781 l 3.888671,-8.277345 c 0.156254,-0.347931 0.156254,-0.74582 0,-1.09375 L 49.994141,1.4882815 C 49.775852,1.0019668 49.28799,0.6876553 48.75,0.6875003 Z"
       id="path923" />
  </g>
  <g
     transform="matrix(1,0,0,1.4545454,-24,54.727272)"
     id="focus-center">
    <rect
       style="display:inline;opacity:1;fill:none;fill-opacity:1;stroke:none;stroke-width:1.96632;stroke-linecap:square;stroke-linejoin:round;stroke-miterlimit:4;stroke-dasharray:none;stroke-dashoffset:0;stroke-opacity:1"
       id="rect927"
       width="17"
       height="21.265266"
       x="31"
       y="-27.95166" />
    <path
       class="ColorScheme-Text"
       inkscape:connector-curvature="0"
       style="color:#eff0f1;display:inline;opacity:1;fill:#7f6bad;fill-opacity:1;stroke:none;stroke-width:0.998436"
       d="M 31,-27.312501 V -7.3749998 H 48 V -27.312501 Z"
       id="path929" />
    <path
       style="display:inline;fill:#000000;fill-opacity:1;stroke:none;opacity:0.4"
       d="M 31,-27.312501 V -26.625 h 17 v -0.687501 z"
       id="path1041"
       inkscape:connector-curvature="0" />
    <path
       style="display:inline;fill:#000000;fill-opacity:1;stroke:none;opacity:0.4"
       d="m 31,-8.0624998 v 0.6875 h 17 v -0.6875 z"
       id="path931"
       inkscape:connector-curvature="0" />
  </g>
  <g
     transform="matrix(1,0,0,1.4545454,-39,14)"
     id="focus-left">
    <rect
       style="opacity:1;fill:none;fill-opacity:1;stroke:none;stroke-width:1.96829;stroke-linecap:square;stroke-linejoin:round;stroke-miterlimit:4;stroke-dasharray:none;stroke-dashoffset:0;stroke-opacity:1"
       id="rect935"
       width="6"
       height="21.307737"
       x="39"
       y="0.0037244302" />
    <path
       sodipodi:nodetypes="cccccccc"
       class="ColorScheme-Text"
       style="color:#eff0f1;display:inline;opacity:1;fill:#7f6bad;fill-opacity:1;stroke:none"
       d="m 41.363281,0.6875003 c -0.984935,1.29e-4 -1.644132,1.002402 -1.24414,1.892578 L 43.761719,11 40.119141,18.732423 c -0.399992,0.890175 0.259205,1.89245 1.24414,1.892578 H 45 V 0.6875003 Z"
       id="path937"
       inkscape:connector-curvature="0" />
    <path
       sodipodi:nodetypes="cccccccccccccccc"
       class="ColorScheme-Text"
       style="color:#eff0f1;display:inline;opacity:0.4;fill:#1a1a1a;fill-opacity:1;stroke:none"
       d="m 41.363281,0.6875003 c -0.984935,1.29e-4 -1.644132,1.002403 -1.24414,1.892578 L 43.761719,11 40.119141,18.732423 c -0.399992,0.890175 0.259205,1.89245 1.24414,1.892578 H 45 v -0.6875 h -3.636719 c -0.306332,-4e-5 -0.448722,-0.535229 -0.332031,-0.794922 l 3.642578,-7.732423 c 0.1173,-0.260857 0.1173,-0.559455 0,-0.820312 L 41.03125,2.1699223 c -0.116691,-0.259694 0.0257,-0.794882 0.332031,-0.794922 H 45 v -0.6875 z"
       id="path939"
       inkscape:connector-curvature="0" />
  </g>
</svg>
